<svg width="204" height="76" viewBox="0 0 204 76" fill="none" xmlns="http://www.w3.org/2000/svg">
<rect width="204" height="76" rx="9" fill="white"/>
<path fill-rule="evenodd" clip-rule="evenodd" d="M135.292 26.1891H130.281V36.7772H135.292C136.008 36.7969 136.721 36.6745 137.389 36.4174C138.058 36.1602 138.67 35.7732 139.189 35.2785C139.709 34.7839 140.127 34.1912 140.419 33.5343C140.71 32.8775 140.87 32.1694 140.889 31.4505C140.834 30.0101 140.215 28.6497 139.167 27.6646C138.119 26.6795 136.727 26.1493 135.292 26.1891Z" fill="#0E3EA2"/>
<path fill-rule="evenodd" clip-rule="evenodd" d="M147.12 38.0519H142.109V48.7055H147.12C147.852 48.763 148.587 48.668 149.28 48.4264C149.974 48.1849 150.609 47.802 151.148 47.3016C151.687 46.8012 152.117 46.1945 152.41 45.5195C152.705 44.8445 152.856 44.1156 152.856 43.3787C152.856 42.6418 152.705 41.9129 152.41 41.2379C152.117 40.5626 151.687 39.9559 151.148 39.4555C150.609 38.9555 149.974 38.5726 149.28 38.331C148.587 38.0894 147.852 37.9945 147.12 38.0519Z" fill="#7D7D7D"/>
<path fill-rule="evenodd" clip-rule="evenodd" d="M147.12 26.1895H142.125V36.7775H147.136C148.571 36.8175 149.963 36.2872 151.011 35.3021C152.059 34.3171 152.677 32.9567 152.733 31.5162C152.714 30.7959 152.553 30.0864 152.261 29.4285C151.968 28.7706 151.549 28.1771 151.027 27.6822C150.506 27.1873 149.892 26.8007 149.222 26.5446C148.551 26.2884 147.837 26.1677 147.12 26.1895Z" fill="#7D7D7D"/>
<path fill-rule="evenodd" clip-rule="evenodd" d="M135.292 38.0519H130.281V48.7055H135.292C136.024 48.763 136.759 48.668 137.452 48.4264C138.145 48.1849 138.781 47.802 139.32 47.3016C139.858 46.8012 140.288 46.1945 140.582 45.5195C140.876 44.8445 141.028 44.1156 141.028 43.3787C141.028 42.6418 140.876 41.9129 140.582 41.2379C140.288 40.5626 139.858 39.9559 139.32 39.4555C138.781 38.9555 138.145 38.5726 137.452 38.331C136.759 38.0894 136.024 37.9945 135.292 38.0519Z" fill="#0E3EA2"/>
<path d="M140.53 17.4966C136.573 17.4999 132.705 18.6813 129.417 20.8917C126.128 23.102 123.566 26.242 122.054 29.9147C120.541 33.5873 120.147 37.6278 120.921 41.5254C121.695 45.4228 123.603 49.0024 126.402 51.8116C129.201 54.6205 132.767 56.5331 136.648 57.3072C140.529 58.0813 144.552 57.6823 148.208 56.1607C151.863 54.6391 154.988 52.0632 157.186 48.7584C159.384 45.4538 160.557 41.5687 160.557 37.5945C160.553 32.2627 158.441 27.1508 154.686 23.3821C150.93 19.6136 145.839 17.4966 140.53 17.4966ZM140.53 9C146.161 9 151.665 10.677 156.348 13.819C161.03 16.961 164.679 21.4269 166.834 26.6518C168.989 31.8768 169.552 37.6261 168.454 43.1728C167.355 48.7198 164.644 53.8147 160.662 57.8137C156.68 61.8126 151.607 64.536 146.084 65.6394C140.561 66.7429 134.837 66.1764 129.634 64.0123C124.432 61.8479 119.985 58.183 116.857 53.4807C113.728 48.7784 112.059 43.25 112.059 37.5945C112.059 30.0107 115.058 22.7376 120.398 17.3751C125.737 12.0126 132.979 9 140.53 9Z" fill="#0E3EA2"/>
<path fill-rule="evenodd" clip-rule="evenodd" d="M63.4712 12.4755C77.2765 12.4755 88.4819 23.7293 88.4819 37.5945C88.4819 51.4595 77.2765 62.7134 63.4712 62.7134C49.6659 62.7134 38.4605 51.4595 38.4605 37.5945C38.4605 23.7293 49.6659 12.4755 63.4712 12.4755ZM72.4977 37.0797C71.9121 37.0808 71.3327 37.1977 70.7922 37.424C70.2519 37.65 69.7609 37.981 69.3479 38.3975C68.5135 39.2391 68.046 40.3789 68.0485 41.5665C68.051 42.7538 68.5229 43.892 69.3609 44.73C70.1986 45.568 71.3335 46.0372 72.516 46.0347C73.6984 46.0325 74.8314 45.5583 75.6658 44.7169C76.5002 43.8753 76.9677 42.7355 76.9652 41.5479C76.9627 40.3606 76.4908 39.2224 75.6531 38.3844C74.8151 37.5464 73.6802 37.0772 72.4977 37.0797ZM72.4977 33.6041C71.3808 33.6041 70.3188 33.8431 69.3667 34.2661C69.2779 34.3029 69.1812 34.3172 69.0852 34.3075C68.9896 34.2979 68.8975 34.2647 68.8176 34.2109C68.7377 34.1599 68.6722 34.0892 68.6271 34.0055C68.5823 33.9218 68.5597 33.8279 68.5613 33.7328V26.267C68.5613 25.936 68.3048 25.6785 67.9752 25.6785H65.0825C64.7712 25.6785 64.5149 25.936 64.5149 26.267V48.1128C64.5149 48.4438 64.7712 48.7012 65.0825 48.7012H68.5613V48.4438C69.7148 49.1241 71.0695 49.5103 72.4977 49.5103C74.5972 49.5103 76.611 48.674 78.0971 47.1848C79.5834 45.6954 80.4208 43.6748 80.4258 41.5665C80.4258 37.1716 76.8737 33.6041 72.4977 33.6041ZM54.4263 37.0797C55.0118 37.0783 55.5918 37.193 56.1331 37.4168C56.6745 37.6408 57.1667 37.9696 57.5815 38.3844C57.9964 38.7995 58.3258 39.2924 58.551 39.8352C58.7761 40.3781 58.8926 40.9601 58.8938 41.5479C58.895 42.136 58.7809 42.7186 58.5579 43.2622C58.335 43.8059 58.0076 44.3001 57.5945 44.7169C57.1813 45.1334 56.6905 45.4644 56.1501 45.6904C55.6096 45.9167 55.0301 46.0336 54.4446 46.0347C53.2622 46.0372 52.1272 45.568 51.2894 44.73C50.4516 43.892 49.9796 42.7538 49.9771 41.5665C49.9747 40.3789 50.4421 39.2391 51.2765 38.3975C52.1108 37.5562 53.2439 37.0819 54.4263 37.0797ZM54.4263 33.6041C55.5432 33.6041 56.6235 33.8431 57.5755 34.2661C57.7586 34.3396 57.96 34.3212 58.1248 34.2109C58.2896 34.1006 58.3811 33.9351 58.3811 33.7328V26.267C58.3811 25.936 58.6375 25.6785 58.967 25.6785H61.8599C62.1712 25.6785 62.4275 25.936 62.4275 26.267V48.1128C62.4275 48.4438 62.1712 48.7012 61.8599 48.7012H58.3811V48.4438C57.1788 49.1404 55.8152 49.507 54.4271 49.5067C53.0391 49.5064 51.6755 49.1396 50.4734 48.4427C49.2712 47.746 48.2727 46.7436 47.5782 45.5366C46.8837 44.3296 46.5176 42.9604 46.5166 41.5665C46.5166 37.1716 50.0504 33.6041 54.4263 33.6041ZM63.4712 9C79.1991 9 91.9424 21.7985 91.9424 37.5945C91.9424 53.3904 79.1991 66.1889 63.4712 66.1889C47.7434 66.1889 35 53.3904 35 37.5945C35 21.7985 47.7434 9 63.4712 9Z" fill="#D22023"/>
</svg>
