<svg xmlns="http://www.w3.org/2000/svg" xmlns:xlink="http://www.w3.org/1999/xlink" width="80" height="80" viewBox="0 0 80 80">
    <defs>
        <style>.call{fill:#fff;stroke:#707070;}.c{fill:#2c78f6;}.d{fill:#335175;}</style>
    </defs>
    <g class="b" transform="translate(-90 -906)">
        <g transform="translate(97.685 916.685)">
            <g transform="translate(-1.994 5.003)">
                <path class="c" d="M37.071,37.112,52.171,52l4.7-5.165L55.7,41.748l-9.176-9.063H41.173Z" transform="translate(0.843 0.744)"/>
                <path class="c" d="M5.787,6.325,21.3,21.584l5.083-6.537L21.3,8.371,13.857,1.107H9.246Z" transform="translate(0.132 0.025)"/>
                <path class="d" d="M57.188,42.04,48.84,33.692a6.6,6.6,0,0,0-9.329,0L36.6,36.6h0l-1.163,1.163L21.348,23.678,25.422,19.6a6.6,6.6,0,0,0,0-9.329L17.081,1.933a6.6,6.6,0,0,0-9.329,0l-2.2,2.2a18.988,18.988,0,0,0,0,26.822L19.664,45.068A1.155,1.155,0,0,0,21.3,43.434L7.185,29.322A16.681,16.681,0,0,1,5.756,7.393l8.769,8.769a1.155,1.155,0,0,0,1.633-1.633L7.29,5.661,9.385,3.566a4.292,4.292,0,0,1,6.063,0l8.341,8.341a4.292,4.292,0,0,1,0,6.063L18.9,22.862a1.155,1.155,0,0,0,0,1.633L34.619,40.216a1.155,1.155,0,0,0,1.633,0l1.163-1.163L51.729,53.366A16.66,16.66,0,0,1,29.8,51.936l-8.228-8.228a1.155,1.155,0,1,0-1.633,1.633l8.228,8.228a18.966,18.966,0,0,0,26.822,0l2.2-2.2a6.6,6.6,0,0,0,0-9.329Zm-1.633,7.7-3.826,3.63L37.416,39.053l3.728-3.728a4.287,4.287,0,0,1,6.063,0l8.348,8.348a4.287,4.287,0,0,1,0,6.063Z" transform="translate(-0.006 -0.004)"/>
            </g>
            <g transform="translate(40.682 4.619)">
                <path class="d" d="M63.043,9.972a4,4,0,0,0-8,.281,1.155,1.155,0,1,0,2.31,0,1.694,1.694,0,1,1,2.067,1.653,1.939,1.939,0,0,0-1.528,1.9v2.08a1.155,1.155,0,1,0,2.309,0v-1.8A3.982,3.982,0,0,0,63.043,9.972Z" transform="translate(-55.045 -6.25)"/>
            </g>
            <g transform="translate(43.531 17.213)">
                <path class="d" d="M60.871,23.628a1.156,1.156,0,1,0,.338.818A1.162,1.162,0,0,0,60.871,23.628Z" transform="translate(-58.9 -23.291)"/>
            </g>
            <g transform="translate(30.252)">
                <path class="d" d="M64.026,0H46.705a5.78,5.78,0,0,0-5.774,5.774V18.935a5.78,5.78,0,0,0,5.774,5.774h4.379l3.38,4.4a1.155,1.155,0,0,0,.916.451h0a1.155,1.155,0,0,0,.916-.455l3.352-4.4h4.375A5.78,5.78,0,0,0,69.8,18.935V5.774A5.78,5.78,0,0,0,64.026,0Zm3.464,18.935h0A3.468,3.468,0,0,1,64.026,22.4H59.08a1.155,1.155,0,0,0-.918.455l-2.784,3.653L52.57,22.85a1.155,1.155,0,0,0-.916-.451H46.705a3.468,3.468,0,0,1-3.464-3.464V5.774A3.468,3.468,0,0,1,46.705,2.31H64.027a3.468,3.468,0,0,1,3.464,3.464Z" transform="translate(-40.931)"/>
            </g>
        </g>
    </g>
</svg>
